<svg xmlns="http://www.w3.org/2000/svg" xmlns:xlink="http://www.w3.org/1999/xlink" xmlns:lucid="lucid" width="763.33" height="628.42"><g transform="translate(-409 -100)" lucid:page-tab-id="0_0"><path d="M1104.97 407.42c0 86.12-136.05 155.94-303.87 155.94-167.83 0-303.88-69.82-303.88-155.94S633.27 251.48 801.1 251.48c167.82 0 303.87 69.82 303.87 155.94z" stroke="#000" stroke-opacity="0" stroke-width="2" fill="url(#a)" transform="matrix(0.8648569823204285,-0.5020183264897825,0.5020183264897825,0.8648569823204285,-96.26954833672426,457.2248913719947)"/><path d="M441 697.42h681.83M441.03 697.42H440" stroke="#000" stroke-width="2" fill="none"/><path d="M1138.1 697.42l-14.27 4.63v-9.27z" stroke="#000" stroke-width="2"/><path d="M440 696.42V158.5M440 696.4v1.02" stroke="#000" stroke-width="2" fill="none"/><path d="M440 143.24l4.64 14.26h-9.28z" stroke="#000" stroke-width="2"/><path d="M1013.33 645.33h100v47.6h-100z" stroke="#000" stroke-opacity="0" stroke-width="2" fill="#fff" fill-opacity="0"/><use xlink:href="#b" transform="matrix(1,0,0,1,1018.3333333333333,650.3333333333333) translate(-11.164999999999978 25.266666666666666)"/><path d="M452 162.67h100v47.6H452z" stroke="#000" stroke-opacity="0" stroke-width="2" fill="#fff" fill-opacity="0"/><use xlink:href="#c" transform="matrix(1,0,0,1,457,167.66666666666666) translate(1.0201851851851984 27.441666666666663)"/><defs><radialGradient gradientUnits="userSpaceOnUse" id="a" fx="785.1" fy="391" cx="785.1" cy="391" r="303.88"><stop offset="0%" stop-color="#7ab648"/><stop offset="46.2%" stop-color="#c7e8ac"/><stop offset="100%" stop-color="#fff"/></radialGradient><path d="M100-261c69 0 82 60 82 132C182-53 163 4 99 4 34 4 19-58 19-129c0-75 17-132 81-132zM52-118c0 55 11 112 67 94 24-15 28-52 29-94H52zm96-23c0-56-10-111-67-93-24 16-28 50-29 93h96" id="d"/><path d="M96-169c-40 0-48 33-48 73s9 75 48 75c24 0 41-14 43-38l32 2c-6 37-31 61-74 61-59 0-76-41-82-99-10-93 101-131 147-64 4 7 5 14 7 22l-32 3c-4-21-16-35-41-35" id="e"/><path d="M24 0v-261h32V0H24" id="f"/><path d="M100-194c63 0 86 42 84 106H49c0 40 14 67 53 68 26 1 43-12 49-29l28 8c-11 28-37 45-77 45C44 4 14-33 15-96c1-61 26-98 85-98zm52 81c6-60-76-77-97-28-3 7-6 17-6 28h103" id="g"/><path d="M141-36C126-15 110 5 73 4 37 3 15-17 15-53c-1-64 63-63 125-63 3-35-9-54-41-54-24 1-41 7-42 31l-33-3c5-37 33-52 76-52 45 0 72 20 72 64v82c-1 20 7 32 28 27v20c-31 9-61-2-59-35zM48-53c0 20 12 33 32 33 41-3 63-29 60-74-43 2-92-5-92 41" id="h"/><path d="M114-163C36-179 61-72 57 0H25l-1-190h30c1 12-1 29 2 39 6-27 23-49 58-41v29" id="i"/><path d="M117-194c89-4 53 116 60 194h-32v-121c0-31-8-49-39-48C34-167 62-67 57 0H25l-1-190h30c1 10-1 24 2 32 11-22 29-35 61-36" id="j"/><g id="b"><use transform="matrix(0.08703703703703701,0,0,0.08703703703703701,0,0)" xlink:href="#d"/><use transform="matrix(0.060925925925925904,0,0,0.060925925925925904,17.4074074074074,4.386666666666665)" xlink:href="#e"/><use transform="matrix(0.060925925925925904,0,0,0.060925925925925904,28.374074074074066,4.386666666666665)" xlink:href="#f"/><use transform="matrix(0.060925925925925904,0,0,0.060925925925925904,33.18722222222221,4.386666666666665)" xlink:href="#g"/><use transform="matrix(0.060925925925925904,0,0,0.060925925925925904,45.372407407407394,4.386666666666665)" xlink:href="#h"/><use transform="matrix(0.060925925925925904,0,0,0.060925925925925904,57.55759259259258,4.386666666666665)" xlink:href="#i"/><use transform="matrix(0.060925925925925904,0,0,0.060925925925925904,64.80777777777776,4.386666666666665)" xlink:href="#h"/><use transform="matrix(0.060925925925925904,0,0,0.060925925925925904,76.99296296296293,4.386666666666665)" xlink:href="#j"/><use transform="matrix(0.060925925925925904,0,0,0.060925925925925904,89.17814814814811,4.386666666666665)" xlink:href="#e"/><use transform="matrix(0.060925925925925904,0,0,0.060925925925925904,100.14481481481478,4.386666666666665)" xlink:href="#g"/></g><path d="M108 0H70L1-190h34L89-25l56-165h34" id="k"/><path d="M100-194c62-1 85 37 85 99 1 63-27 99-86 99S16-35 15-95c0-66 28-99 85-99zM99-20c44 1 53-31 53-75 0-43-8-75-51-75s-53 32-53 75 10 74 51 75" id="l"/><path d="M84 4C-5 8 30-112 23-190h32v120c0 31 7 50 39 49 72-2 45-101 50-169h31l1 190h-30c-1-10 1-25-2-33-11 22-28 36-60 37" id="m"/><path d="M210-169c-67 3-38 105-44 169h-31v-121c0-29-5-50-35-48C34-165 62-65 56 0H25l-1-190h30c1 10-1 24 2 32 10-44 99-50 107 0 11-21 27-35 58-36 85-2 47 119 55 194h-31v-121c0-29-5-49-35-48" id="n"/><g id="c"><use transform="matrix(0.08703703703703701,0,0,0.08703703703703701,0,0)" xlink:href="#d"/><use transform="matrix(0.060925925925925904,0,0,0.060925925925925904,17.4074074074074,4.386666666666665)" xlink:href="#k"/><use transform="matrix(0.060925925925925904,0,0,0.060925925925925904,28.374074074074066,4.386666666666665)" xlink:href="#l"/><use transform="matrix(0.060925925925925904,0,0,0.060925925925925904,40.55925925925925,4.386666666666665)" xlink:href="#f"/><use transform="matrix(0.060925925925925904,0,0,0.060925925925925904,45.372407407407394,4.386666666666665)" xlink:href="#m"/><use transform="matrix(0.060925925925925904,0,0,0.060925925925925904,57.55759259259258,4.386666666666665)" xlink:href="#n"/><use transform="matrix(0.060925925925925904,0,0,0.060925925925925904,75.77444444444443,4.386666666666665)" xlink:href="#g"/></g></defs></g></svg>