<svg xmlns="http://www.w3.org/2000/svg" xmlns:lucid="lucid" width="845.7" height="648.42"><g transform="translate(-409 -80)" lucid:page-tab-id="0_0"><path d="M0 0h1760v1360H0z" fill="#fff"/><path d="M1104.97 407.42c0 86.12-136.05 155.94-303.87 155.94-167.83 0-303.88-69.82-303.88-155.94S633.27 251.48 801.1 251.48c167.82 0 303.87 69.82 303.87 155.94z" stroke="#000" stroke-opacity="0" stroke-width="2" fill="url(#a)" transform="matrix(0.8648569823204285,-0.5020183264897825,0.5020183264897825,0.8648569823204285,-96.26954833672426,457.2248913719947)"/><path d="M441 697.42h681.83M441.03 697.42H440" stroke="#000" stroke-width="2" fill="none"/><path d="M1138.1 697.42l-14.27 4.63v-9.27z" stroke="#000" stroke-width="2"/><path d="M440 696.42V158.5M440 696.4v1.02" stroke="#000" stroke-width="2" fill="none"/><path d="M440 143.24l4.64 14.26h-9.28z" stroke="#000" stroke-width="2"/><path d="M460 100h178.62v74.54H460z" fill="#fff" fill-opacity="0"/><path d="M492.46 129.35c0 10.65-3.94 20.1-8.8 26.62-4.27 5.65-8.87 7.7-13.47 7.7-5.34 0-8.43-4.35-8.43-11.32 0-14.13 7.43-25.76 14.6-31.2 2.9-2.18 5.38-2.77 8-2.77 4.68 0 8.1 3.15 8.1 10.97m-22.8 10.78h15.3c1.12-3.8 1.97-8.54 1.97-13.47 0-4.2-1.18-6.9-3.48-6.9-5.72 0-12.16 14.52-13.8 20.37m14.85 2.1h-15.3c-1.25 3.3-1.9 6.7-1.9 10.84 0 5.85 1.24 9.2 3.67 9.2 6.3 0 11.97-13.6 13.54-20.04M484.5 112.13h-2.22l-8.02-6.77-7.95 6.77h-2.23l8.15-10.97h4.08M514.63 151.88v.7c-1.4.14-1.77.5-3.02 3.62l-5.94 14.92c-.7 1.72-1.02 2.32-1.3 2.32s-.5-.37-.84-1.2c-.14-.24-.18-.57-.37-.98l-5.57-13.34c-2-4.8-2.47-5.25-4.23-5.34v-.7h9.1v.7c-1.57.14-2.13.46-2.13 1.25 0 .47.14 1.07.42 1.77l4.74 11.9 4.6-12.04c.18-.47.27-.93.27-1.4 0-.88-.7-1.34-2.18-1.48v-.7h6.46M537.54 162.06c0 6.45-4.18 11.2-10.46 11.2-5.62 0-10.03-4.6-10.03-11.07 0-6.46 4.18-10.8 10.45-10.8 5.67 0 10.04 4.24 10.04 10.66m-4.18 1.25c0-3.15-.84-6.36-2.33-8.26-1.1-1.4-2.4-2.32-4.4-2.32-3.22 0-5.4 2.74-5.4 7.38 0 3.67.74 7.02 2.46 9.53 1 1.5 2.5 2.32 4.17 2.32 3.44 0 5.5-3.25 5.5-8.64M550.92 172.8h-10.96v-.7c2.92-.24 3.57-1.03 3.57-3.6v-21.78c0-2.23-.46-2.97-1.95-2.97-.37 0-.97 0-1.72.1v-.75c3.2-.8 4.93-1.26 7.34-2.05l.24.2v27.5c0 2.55.5 3.16 3.48 3.34v.7M574.2 170.47v.65c-2.37.65-4.04 1.16-6.36 2.1l-.24-.15v-3.8h-.1c-2.27 3.1-4.9 3.98-6.63 3.98-3.58 0-5.67-2.37-5.67-5.94v-11.66c0-2.32-.65-2.97-2.88-3.1v-.66h6.78v15c0 2.15 1.5 3.68 3.3 3.68 1.35 0 2.74-.42 3.9-1.44.75-.65 1.07-1.07 1.07-2.7V155.7c0-2.47-.65-2.85-3.44-3.03v-.8h7.35v15.95c0 2.14.5 2.65 2.64 2.65h.28M611.2 172.8h-10.14v-.7c2.6-.3 3.02-.8 3.02-3.5v-9.56c0-3.68-.93-5.2-3.58-5.2-2.18 0-3.57.83-4.97 2.83v11.7c0 3.03.7 3.68 3.35 3.72v.7h-10.4v-.7c2.64-.2 3.15-.47 3.15-3.3V159c0-3.22-1.02-5.17-3.02-5.17-1.7 0-4 .88-4.92 2-.32.37-.6.7-.6.8v12.9c0 2 .7 2.47 3.16 2.56v.7h-10.32v-.7c2.6-.05 3.26-.7 3.26-3.4v-11.52c0-2.28-.42-3.07-1.63-3.07-.5 0-.88.06-1.5.2v-.8c2.57-.7 4.1-1.2 6.47-2.1l.37.15V155h.1c3.05-3.17 5-3.6 7.1-3.6 2.5 0 4.1 1.27 4.92 3.92 2.5-2.7 4.88-3.9 7.58-3.9 3.76 0 5.4 2.88 5.4 8.36v9.43c0 2.1.6 2.7 1.98 2.8l1.2.1v.7M630.3 165.17l.73.32c-1.8 5.06-5.06 7.75-9.7 7.75-5.5 0-8.84-4.13-8.84-10.54 0-6.55 3.76-11.3 9.6-11.3 2.9 0 5 1.13 6.47 3.22.93 1.3 1.4 2.8 1.58 5.3h-14.3c.22 3.53.45 5.34 2.13 7.57 1.3 1.7 3.02 2.55 5.16 2.55 3.1 0 4.87-1.44 7.15-4.88m-14.37-6.74h9.48c-.5-3.76-1.47-5.34-4.54-5.34-2.6 0-4.42 1.85-4.93 5.33"/><path d="M1020 600h214.7v74.35H1020z" fill="#fff" fill-opacity="0"/><path d="M1052.46 629.35c0 10.65-3.94 20.1-8.8 26.62-4.27 5.65-8.87 7.7-13.47 7.7-5.34 0-8.43-4.35-8.43-11.32 0-14.13 7.43-25.76 14.6-31.2 2.9-2.18 5.38-2.77 8-2.77 4.68 0 8.1 3.15 8.1 10.97m-22.8 10.78h15.3c1.12-3.8 1.97-8.54 1.97-13.47 0-4.2-1.18-6.9-3.48-6.9-5.72 0-12.16 14.52-13.8 20.37m14.85 2.1h-15.3c-1.25 3.3-1.9 6.7-1.9 10.84 0 5.85 1.24 9.2 3.67 9.2 6.3 0 11.97-13.6 13.54-20.04M1044.5 612.13h-2.22l-8.02-6.77-7.95 6.77h-2.23l8.15-10.97h4.08M1070.96 665.54l.65.42c-1.48 2.88-2.4 4.23-3.8 5.34-1.58 1.3-3.35 1.95-5.34 1.95-5.16 0-8.83-4.32-8.83-10.3 0-3.87 1.4-7.07 3.9-9.17 1.86-1.53 4.1-2.37 6.27-2.37 3.9 0 7.16 2.2 7.16 4.8 0 1.07-.98 1.95-2.2 1.95-1 0-1.84-.8-2.22-2.14l-.27-1c-.47-1.73-1.07-2.24-2.75-2.24-3.76 0-6.32 3.25-6.32 8.1 0 5.33 2.93 9.05 7.2 9.05 2.66 0 4.33-1.1 6.56-4.36M1085.04 672.8h-10.97v-.7c2.93-.24 3.58-1.03 3.58-3.6v-21.78c0-2.23-.46-2.97-1.95-2.97-.37 0-.98 0-1.72.1v-.75c3.2-.8 4.93-1.26 7.34-2.05l.23.2v27.5c0 2.55.52 3.16 3.5 3.34v.7M1105.02 665.17l.74.32c-1.8 5.06-5.06 7.75-9.7 7.75-5.5 0-8.84-4.13-8.84-10.54 0-6.55 3.77-11.3 9.62-11.3 2.88 0 4.97 1.13 6.46 3.22.93 1.3 1.4 2.8 1.58 5.3h-14.3c.22 3.53.45 5.34 2.13 7.57 1.3 1.7 3.03 2.55 5.16 2.55 3.12 0 4.88-1.44 7.16-4.88m-14.36-6.74h9.48c-.5-3.76-1.5-5.34-4.55-5.34-2.6 0-4.43 1.85-4.94 5.33M1127.23 669.72v1.3c-1.4 1.77-2.6 2.23-4.18 2.23-1.72 0-2.74-.92-2.97-3.4h-.05c-2.46 2.8-4.74 3.4-6.74 3.4-2.9 0-4.9-1.76-4.9-4.83 0-2.4 1.45-4.23 3.27-5.44 1.4-.92 3.1-1.8 8.36-3.76v-2.5c0-2.9-1.53-4.2-3.62-4.2-1.85 0-3.25 1.03-3.25 2.3 0 .82.28.96.28 1.94 0 .88-.93 1.9-2.14 1.9-.98 0-2-.88-2-2.13 0-1.2.74-2.7 2.37-3.72 1.3-.83 3.25-1.4 5.34-1.4 2.6 0 4.38.76 5.5 2.1 1.1 1.35 1.3 2.33 1.3 5.16v8.88c0 2.14.6 3.07 1.43 3.07.75 0 1.2-.23 2-.88m-7.2-2.83v-6.56c-2.88 1.02-4.8 2-5.95 3.06-1.1 1.03-1.58 2.14-1.58 3.58 0 2.46 1.4 3.58 3.2 3.58.94 0 1.9-.23 2.7-.74 1.35-.93 1.63-1.58 1.63-2.93M1134.8 651.5v4.28c2.33-3.34 3.63-4.37 5.58-4.37 1.58 0 2.56.94 2.56 2.48 0 1.3-.7 2.1-1.8 2.1-.62 0-1.13-.24-1.87-.94-.5-.47-.93-.7-1.2-.7-1.3 0-3.26 2.33-3.26 3.8v10.47c0 2.66.8 3.35 3.96 3.5v.7h-11.16v-.7c2.98-.56 3.3-.9 3.3-3.2v-11.63c0-2.05-.4-2.8-1.58-2.8-.55 0-.97.06-1.62.2v-.75c2.74-.88 4.4-1.53 6.88-2.5M1163.4 669.72v1.3c-1.4 1.77-2.62 2.23-4.2 2.23-1.72 0-2.74-.92-2.97-3.4h-.05c-2.46 2.8-4.74 3.4-6.73 3.4-2.9 0-4.88-1.76-4.88-4.83 0-2.4 1.44-4.23 3.25-5.44 1.4-.92 3.1-1.8 8.36-3.76v-2.5c0-2.9-1.53-4.2-3.62-4.2-1.86 0-3.25 1.03-3.25 2.3 0 .82.28.96.28 1.94 0 .88-.92 1.9-2.13 1.9-.98 0-2-.88-2-2.13 0-1.2.74-2.7 2.37-3.72 1.3-.83 3.25-1.4 5.34-1.4 2.6 0 4.37.76 5.5 2.1 1.1 1.35 1.3 2.33 1.3 5.16v8.88c0 2.14.6 3.07 1.43 3.07.73 0 1.2-.23 2-.88m-7.22-2.83v-6.56c-2.88 1.02-4.78 2-5.94 3.06-1.12 1.03-1.58 2.14-1.58 3.58 0 2.46 1.4 3.58 3.2 3.58.93 0 1.9-.23 2.7-.74 1.34-.93 1.62-1.58 1.62-2.93M1186.06 672.8h-9.66l.04-.7c2.33-.2 2.88-1.12 2.88-4.2v-9.24c0-3.3-1.1-4.7-3.4-4.7-1.52 0-2.64.57-4.77 2.66v12.82c0 1.82.65 2.47 3.02 2.65v.7h-9.8v-.7c2.36-.2 2.87-.94 2.87-3.68v-11.3c0-2.27-.32-3-1.62-3-.5 0-1.03.04-1.35.18v-.8c2.55-.74 4.1-1.25 6.37-2.1l.37.15v3.63h.05c2.42-2.74 4.56-3.77 6.7-3.77 3.53 0 5.48 2.57 5.48 7.17v10.27c0 2.5.56 3.02 2.83 3.25v.7M1205.25 665.54l.66.42c-1.48 2.88-2.4 4.23-3.8 5.34-1.6 1.3-3.35 1.95-5.35 1.95-5.16 0-8.83-4.32-8.83-10.3 0-3.87 1.4-7.07 3.9-9.17 1.86-1.53 4.1-2.37 6.28-2.37 3.9 0 7.15 2.2 7.15 4.8 0 1.07-.97 1.95-2.18 1.95-1.02 0-1.86-.8-2.23-2.14l-.28-1c-.46-1.73-1.07-2.24-2.74-2.24-3.76 0-6.32 3.25-6.32 8.1 0 5.33 2.93 9.05 7.2 9.05 2.65 0 4.32-1.1 6.55-4.36M1226.4 665.17l.74.32c-1.8 5.06-5.06 7.75-9.7 7.75-5.5 0-8.84-4.13-8.84-10.54 0-6.55 3.76-11.3 9.62-11.3 2.88 0 4.97 1.13 6.46 3.22.93 1.3 1.4 2.8 1.58 5.3h-14.3c.22 3.53.45 5.34 2.12 7.57 1.3 1.7 3.02 2.55 5.16 2.55 3.12 0 4.88-1.44 7.16-4.88m-14.36-6.74h9.48c-.5-3.76-1.5-5.34-4.56-5.34-2.6 0-4.4 1.85-4.92 5.33"/><defs><radialGradient gradientUnits="userSpaceOnUse" id="a" fx="785.1" fy="391" cx="785.1" cy="391" r="303.88"><stop offset="0%" stop-color="#7ab648"/><stop offset="46.2%" stop-color="#c7e8ac"/><stop offset="100%" stop-color="#fff"/></radialGradient></defs></g></svg>