<svg xmlns="http://www.w3.org/2000/svg" xmlns:xlink="http://www.w3.org/1999/xlink" xmlns:lucid="lucid" width="1080" height="769.6"><g transform="translate(-600 -96.39731015637517)" lucid:page-tab-id="0_0"><path d="M0 0h1760v1360H0z" fill="#fff"/><path d="M620 244.4c0-4.42 3.58-8 8-8h144c4.42 0 8 3.58 8 8v112c-26.72-20.04-43.36-20.04-53.44-20.04-16 0-37.28 20.04-53.28 20.04-9.92 0-26.72 0-53.28-20.04z" stroke="#333" fill="#ffbbb1"/><use xlink:href="#a" transform="matrix(1,0,0,1,625,241.39731015637517) translate(2.751333333333349 50.61111111111111)"/><path d="M940 296.2c0-4.42 3.58-8 8-8h144c4.42 0 8 3.58 8 8v112c-26.72-20.04-43.36-20.04-53.44-20.04-16 0-37.28 20.04-53.28 20.04-9.92 0-26.72 0-53.28-20.04z" stroke="#333" fill="#ffbbb1"/><use xlink:href="#b" transform="matrix(1,0,0,1,945,293.1986550781876) translate(52.64533333333334 50.61111111111111)"/><path d="M940 416.2c0-4.42 3.58-8 8-8h144c4.42 0 8 3.58 8 8v112c-26.72-20.04-43.36-20.04-53.44-20.04-16 0-37.28 20.04-53.28 20.04-9.92 0-26.72 0-53.28-20.04z" stroke="#333" fill="#ffeca9"/><use xlink:href="#c" transform="matrix(1,0,0,1,945,413.1986550781876) translate(44.40822222222223 50.61111111111111)"/><path d="M940 596.2c0-4.42 3.58-8 8-8h144c4.42 0 8 3.58 8 8v112c-26.72-20.04-43.36-20.04-53.44-20.04-16 0-37.28 20.04-53.28 20.04-9.92 0-26.72 0-53.28-20.04z" stroke="#333" fill="#ffbbb1"/><use xlink:href="#d" transform="matrix(1,0,0,1,945,593.1986550781876) translate(33.92666666666667 50.61111111111111)"/><path d="M940 716.2c0-4.42 3.58-8 8-8h144c4.42 0 8 3.58 8 8v112c-26.72-20.04-43.36-20.04-53.44-20.04-16 0-37.28 20.04-53.28 20.04-9.92 0-26.72 0-53.28-20.04z" stroke="#333" fill="#ffeca9"/><use xlink:href="#e" transform="matrix(1,0,0,1,945,713.1986550781876) translate(25.689555555555565 50.61111111111111)"/><path d="M620 506.2c0-4.42 3.58-8 8-8h144c4.42 0 8 3.58 8 8v104c0 4.42-3.58 8-8 8H628c-4.42 0-8-3.58-8-8z" stroke="#333" fill="#c1e4f7"/><use xlink:href="#f" transform="matrix(1,0,0,1,625,503.1986550781876) translate(27.05866666666668 60.61111111111111)"/><use xlink:href="#g" transform="matrix(1,0,0,1,625,503.1986550781876) translate(52.08422222222223 60.61111111111111)"/><path d="M1220 296.2c0-4.42 3.58-8 8-8h144c4.42 0 8 3.58 8 8v112c-26.72-20.04-43.36-20.04-53.44-20.04-16 0-37.28 20.04-53.28 20.04-9.92 0-26.72 0-53.28-20.04z" stroke="#333" fill="#c7e8ac"/><use xlink:href="#h" transform="matrix(1,0,0,1,1225,293.1986550781876) translate(48.24622222222223 50.61111111111111)"/><path d="M1220 596.2c0-4.42 3.58-8 8-8h144c4.42 0 8 3.58 8 8v112c-26.72-20.04-43.36-20.04-53.44-20.04-16 0-37.28 20.04-53.28 20.04-9.92 0-26.72 0-53.28-20.04z" stroke="#333" fill="#c7e8ac"/><use xlink:href="#i" transform="matrix(1,0,0,1,1225,593.1986550781876) translate(29.527555555555566 50.61111111111111)"/><path d="M781 558.2h67c6.63 0 12-5.37 12-12v-66c0-6.63 5.37-12 12-12h51.12" stroke="#333" fill="none"/><path d="M781 558.7h-.5v-1h.5z" fill="#333"/><path d="M937.88 468.2l-14.26 4.63v-9.27z" stroke="#333" fill="#333"/><path d="M781 558.2h67c6.63 0 12 5.37 12 12v186c0 6.63 5.37 12 12 12h51.12" stroke="#333" fill="none"/><path d="M781 558.7h-.5v-1h.5z" fill="#333"/><path d="M937.88 768.2l-14.26 4.63v-9.27z" stroke="#333" fill="#333"/><path d="M1101 348.3h102.12" stroke="#333" fill="none"/><path d="M1101 348.8h-.5v-1h.5z" fill="#333"/><path d="M1217.88 348.3l-14.26 4.64v-9.27z" stroke="#333" fill="#333"/><path d="M1101 468.3h47c6.63 0 12-5.37 12-12v-95c0-6.62 5.37-12 12-12h31.12" stroke="#333" fill="none"/><path d="M1101 468.8h-.5v-1h.5z" fill="#333"/><path d="M1217.88 349.3l-14.26 4.64v-9.27z" stroke="#333" fill="#333"/><path d="M1101 648.3h102.12" stroke="#333" fill="none"/><path d="M1101 648.8h-.5v-1h.5z" fill="#333"/><path d="M1217.88 648.3l-14.26 4.64v-9.27z" stroke="#333" fill="#333"/><path d="M1101 768.3h47c6.63 0 12-5.37 12-12v-95c0-6.62 5.37-12 12-12h31.12" stroke="#333" fill="none"/><path d="M1101 768.8h-.5v-1h.5z" fill="#333"/><path d="M1217.88 649.3l-14.26 4.64v-9.27z" stroke="#333" fill="#333"/><path d="M1628 455.44c17.67 0 32 17.9 32 40s-14.33 40-32 40h-96c-17.67 0-32-17.9-32-40s14.33-40 32-40z" stroke="#333" fill="#d1bcd2"/><use xlink:href="#j" transform="matrix(1,0,0,1,1505,460.43608618248254) translate(15.713000000000008 40.61111111111111)"/><path d="M1381 348.3h47c6.63 0 12 5.38 12 12v123.14c0 6.62 5.37 12 12 12h31.12" stroke="#333" fill="none"/><path d="M1381 348.8h-.5v-1h.5z" fill="#333"/><path d="M1497.88 495.44l-14.26 4.63v-9.27z" stroke="#333" fill="#333"/><path d="M1381 648.3h47c6.63 0 12-5.37 12-12V507.45c0-6.63 5.37-12 12-12h31.12" stroke="#333" fill="none"/><path d="M1381 648.8h-.5v-1h.5z" fill="#333"/><path d="M1497.88 495.44l-14.26 4.63v-9.27z" stroke="#333" fill="#333"/><path d="M900 536.2c0-4.42 3.58-8 8-8h224c4.42 0 8 3.58 8 8v44c0 4.42-3.58 8-8 8H908c-4.42 0-8-3.58-8-8z" stroke="#000" stroke-opacity="0" fill="#fff" fill-opacity="0"/><use xlink:href="#k" transform="matrix(1,0,0,1,905,533.1986550781876) translate(107.79533333333333 30.611111111111107)"/><path d="M1180 536.2c0-4.42 3.58-8 8-8h224c4.42 0 8 3.58 8 8v44c0 4.42-3.58 8-8 8h-224c-4.42 0-8-3.58-8-8z" stroke="#000" stroke-opacity="0" fill="#fff" fill-opacity="0"/><use xlink:href="#k" transform="matrix(1,0,0,1,1185,533.1986550781876) translate(107.79533333333333 30.611111111111107)"/><path d="M1300 124.4c0-4.42 3.58-8 8-8h144c4.42 0 8 3.58 8 8v104c0 4.42-3.58 8-8 8h-144c-4.42 0-8-3.58-8-8z" stroke="#333" fill="#c1e4f7"/><use xlink:href="#l" transform="matrix(1,0,0,1,1305,121.39731015637517) translate(9.529555555555575 49.388888888888886)"/><use xlink:href="#m" transform="matrix(1,0,0,1,1305,121.39731015637517) translate(130.752 49.388888888888886)"/><use xlink:href="#n" transform="matrix(1,0,0,1,1305,121.39731015637517) translate(25.9588888888889 71.83333333333333)"/><path d="M1299 176.4h-144.74c-6.63 0-12 5.37-12 12v143.52" stroke="#333" fill="none"/><path d="M1299.5 176.9h-.5v-1h.5z" fill="#333"/><path d="M1142.26 346.7l-4.64-14.28h9.27z" stroke="#333" fill="#333"/><path d="M1299 176.4h-144.74c-6.63 0-12 5.37-12 12v443.52" stroke="#333" fill="none"/><path d="M1299.5 176.9h-.5v-1h.5z" fill="#333"/><path d="M1142.26 646.7l-4.64-14.28h9.27z" stroke="#333" fill="#333"/><path d="M700 347.22v134.1" stroke="#333" fill="none"/><path d="M700.5 347.23h-1v-.26l1-.5z" fill="#333"/><path d="M700 496.08l-4.64-14.27h9.28z" stroke="#333" fill="#333"/><path d="M700 619.2V848c0 6.63 5.37 12 12 12h856c6.63 0 12-5.37 12-12V552.32" stroke="#333" fill="none"/><path d="M700.5 619.2h-1v-.5h1z" fill="#333"/><path d="M1580 537.55l4.64 14.27h-9.28z" stroke="#333" fill="#333"/><path d="M781 558.2h67c6.63 0 12-5.37 12-12v-186c0-6.63 5.37-12 12-12h51.12" stroke="#333" fill="none"/><path d="M781 558.7h-.5v-1h.5z" fill="#333"/><path d="M937.88 348.2l-14.26 4.63v-9.27z" stroke="#333" fill="#333"/><path d="M781 558.2h67c6.63 0 12 5.37 12 12v66c0 6.63 5.37 12 12 12h51.12" stroke="#333" fill="none"/><path d="M781 558.7h-.5v-1h.5z" fill="#333"/><path d="M937.88 648.2l-14.26 4.63v-9.27z" stroke="#333" fill="#333"/><path d="M1461 176.4h107c6.63 0 12 5.37 12 12v250.15" stroke="#333" fill="none"/><path d="M1461 176.9h-.5v-1h.5z" fill="#333"/><path d="M1580 453.32l-4.64-14.27h9.28z" stroke="#333" fill="#333"/><defs><path fill="#333" d="M399-472H161v342c0 12 10 22 22 22h216V0H183C111 0 53-58 53-130v-640h108v190h238v108" id="o"/><path fill="#333" d="M511-580c72 0 130 58 130 130v214H159v106c0 12 10 22 22 22h460V0H181C109 0 51-58 51-130v-320c0-72 58-130 130-130h330zM159-344h374v-106c0-12-10-22-22-22H181c-12 0-22 10-22 22v106" id="p"/><path fill="#333" d="M795-580c72 0 130 58 130 130V0H818v-450c0-12-10-22-23-22H566c-12 0-22 10-22 22V0H436v-450c0-12-10-22-22-22H184c-12 0-22 10-22 22V0H54v-580h741" id="q"/><path fill="#333" d="M514-580c72 0 130 58 130 130v320C644-58 586 0 514 0H162v230H54v-810h460zm22 450v-320c0-12-10-22-22-22H184c-12 0-22 10-22 22v320c0 12 10 22 22 22h330c12 0 22-10 22-22" id="r"/><path fill="#333" d="M52-770h108v640c0 12 10 22 22 22h108V0H182C110 0 52-58 52-130v-640" id="s"/><path fill="#333" d="M512-580c72 0 130 58 130 130V0H182C110 0 52-58 52-130v-214h482v-106c0-12-10-22-22-22H52v-108h460zm22 472v-128H160v106c0 12 10 22 22 22h352" id="t"/><path fill="#333" d="M162-108V0H54v-108h108" id="u"/><path fill="#333" d="M181-108h460V0H181C109 0 51-58 51-130v-320c0-72 58-130 130-130h458v108H181c-12 0-22 10-22 22v320c0 12 10 22 22 22" id="v"/><g id="a"><use transform="matrix(0.02244444444444444,0,0,0.02244444444444444,0,0)" xlink:href="#o"/><use transform="matrix(0.02244444444444444,0,0,0.02244444444444444,9.20222222222222,0)" xlink:href="#p"/><use transform="matrix(0.02244444444444444,0,0,0.02244444444444444,24.733777777777775,0)" xlink:href="#q"/><use transform="matrix(0.02244444444444444,0,0,0.02244444444444444,46.459999999999994,0)" xlink:href="#r"/><use transform="matrix(0.02244444444444444,0,0,0.02244444444444444,61.475333333333325,0)" xlink:href="#s"/><use transform="matrix(0.02244444444444444,0,0,0.02244444444444444,68.25355555555555,0)" xlink:href="#t"/><use transform="matrix(0.02244444444444444,0,0,0.02244444444444444,83.83,0)" xlink:href="#o"/><use transform="matrix(0.02244444444444444,0,0,0.02244444444444444,93.03222222222223,0)" xlink:href="#p"/><use transform="matrix(0.02244444444444444,0,0,0.02244444444444444,108.56377777777777,0)" xlink:href="#u"/><use transform="matrix(0.02244444444444444,0,0,0.02244444444444444,113.3668888888889,0)" xlink:href="#v"/><use transform="matrix(0.02244444444444444,0,0,0.02244444444444444,128.51688888888887,0)" xlink:href="#o"/><use transform="matrix(0.02244444444444444,0,0,0.02244444444444444,137.7191111111111,0)" xlink:href="#s"/></g><path fill="#333" d="M1-477l203-243h129V0H225v-576l-83 99H1" id="w"/><g id="b"><use transform="matrix(0.02244444444444444,0,0,0.02244444444444444,0,0)" xlink:href="#w"/><use transform="matrix(0.02244444444444444,0,0,0.02244444444444444,8.775777777777776,0)" xlink:href="#u"/><use transform="matrix(0.02244444444444444,0,0,0.02244444444444444,13.578888888888887,0)" xlink:href="#v"/><use transform="matrix(0.02244444444444444,0,0,0.02244444444444444,28.728888888888882,0)" xlink:href="#o"/><use transform="matrix(0.02244444444444444,0,0,0.02244444444444444,37.93111111111111,0)" xlink:href="#s"/></g><path fill="#333" d="M508-580c79 2 138 64 130 152H530c2-23-1-44-22-44H178c-38 4-22 69-22 106 0 12 10 22 22 22h330c72 0 130 58 130 130v84C638-58 580 0 508 0H178C99-2 40-64 48-152h108c-2 23 1 44 22 44h330c38-4 22-69 22-106 0-12-10-22-22-22H178c-72 0-130-58-130-130v-84c0-72 58-130 130-130h330" id="x"/><path fill="#333" d="M645-580h124L449 0H341L21-580h125l249 458" id="y"/><g id="c"><use transform="matrix(0.02244444444444444,0,0,0.02244444444444444,0,0)" xlink:href="#w"/><use transform="matrix(0.02244444444444444,0,0,0.02244444444444444,8.775777777777776,0)" xlink:href="#u"/><use transform="matrix(0.02244444444444444,0,0,0.02244444444444444,13.578888888888887,0)" xlink:href="#v"/><use transform="matrix(0.02244444444444444,0,0,0.02244444444444444,29.177777777777774,0)" xlink:href="#x"/><use transform="matrix(0.02244444444444444,0,0,0.02244444444444444,43.45244444444444,0)" xlink:href="#y"/></g><path fill="#333" d="M187-720h460c72 0 130 58 130 130v460C777-58 719 0 647 0H187C115 0 57-58 57-130v-460c0-72 58-130 130-130zm446 108H187c-12 0-22 10-22 22v371zM201-108h446c12 0 22-10 22-22v-371" id="z"/><g id="d"><use transform="matrix(0.02244444444444444,0,0,0.02244444444444444,0,0)" xlink:href="#w"/><use transform="matrix(0.02244444444444444,0,0,0.02244444444444444,8.775777777777776,0)" xlink:href="#z"/><use transform="matrix(0.02244444444444444,0,0,0.02244444444444444,27.49444444444444,0)" xlink:href="#z"/><use transform="matrix(0.02244444444444444,0,0,0.02244444444444444,46.213111111111104,0)" xlink:href="#u"/><use transform="matrix(0.02244444444444444,0,0,0.02244444444444444,51.01622222222221,0)" xlink:href="#v"/><use transform="matrix(0.02244444444444444,0,0,0.02244444444444444,66.16622222222222,0)" xlink:href="#o"/><use transform="matrix(0.02244444444444444,0,0,0.02244444444444444,75.36844444444444,0)" xlink:href="#s"/></g><g id="e"><use transform="matrix(0.02244444444444444,0,0,0.02244444444444444,0,0)" xlink:href="#w"/><use transform="matrix(0.02244444444444444,0,0,0.02244444444444444,8.775777777777776,0)" xlink:href="#z"/><use transform="matrix(0.02244444444444444,0,0,0.02244444444444444,27.49444444444444,0)" xlink:href="#z"/><use transform="matrix(0.02244444444444444,0,0,0.02244444444444444,46.213111111111104,0)" xlink:href="#u"/><use transform="matrix(0.02244444444444444,0,0,0.02244444444444444,51.01622222222221,0)" xlink:href="#v"/><use transform="matrix(0.02244444444444444,0,0,0.02244444444444444,66.6151111111111,0)" xlink:href="#x"/><use transform="matrix(0.02244444444444444,0,0,0.02244444444444444,80.88977777777777,0)" xlink:href="#y"/></g><path fill="#333" d="M775-589v202c0 71-58 130-130 130h-73L775-15V0H647L431-257c-89-1-182 2-268-2V0H55v-719h590c72 0 130 59 130 130zM185-365h460c12 0 22-10 22-22v-202c0-12-10-22-22-22H185c-12 0-22 10-22 22v202c0 12 10 22 22 22" id="A"/><use transform="matrix(0.02244444444444444,0,0,0.02244444444444444,0,0)" xlink:href="#A" id="f"/><path fill="#333" d="M182-580h324v108H182c-12 0-22 10-22 22V0H52v-450c0-72 58-130 130-130" id="B"/><path fill="#333" d="M52 0v-580h108V0H52zm0-770h108v108H52v-108" id="C"/><g id="g"><use transform="matrix(0.02244444444444444,0,0,0.02244444444444444,0,0)" xlink:href="#x"/><use transform="matrix(0.02244444444444444,0,0,0.02244444444444444,15.351999999999997,0)" xlink:href="#v"/><use transform="matrix(0.02244444444444444,0,0,0.02244444444444444,30.950888888888883,0)" xlink:href="#B"/><use transform="matrix(0.02244444444444444,0,0,0.02244444444444444,42.44244444444443,0)" xlink:href="#C"/><use transform="matrix(0.02244444444444444,0,0,0.02244444444444444,46.75177777777777,0)" xlink:href="#r"/><use transform="matrix(0.02244444444444444,0,0,0.02244444444444444,61.65488888888888,0)" xlink:href="#o"/></g><path fill="#333" d="M518-580h128v15L416-295 646-15V0H518L346-211 174 0H46v-15l229-280L46-565v-15h128l172 201" id="D"/><g id="h"><use transform="matrix(0.02244444444444444,0,0,0.02244444444444444,0,0)" xlink:href="#w"/><use transform="matrix(0.02244444444444444,0,0,0.02244444444444444,8.775777777777776,0)" xlink:href="#u"/><use transform="matrix(0.02244444444444444,0,0,0.02244444444444444,13.578888888888887,0)" xlink:href="#p"/><use transform="matrix(0.02244444444444444,0,0,0.02244444444444444,28.773777777777774,0)" xlink:href="#D"/><use transform="matrix(0.02244444444444444,0,0,0.02244444444444444,44.30533333333332,0)" xlink:href="#o"/></g><g id="i"><use transform="matrix(0.02244444444444444,0,0,0.02244444444444444,0,0)" xlink:href="#w"/><use transform="matrix(0.02244444444444444,0,0,0.02244444444444444,8.775777777777776,0)" xlink:href="#z"/><use transform="matrix(0.02244444444444444,0,0,0.02244444444444444,27.49444444444444,0)" xlink:href="#z"/><use transform="matrix(0.02244444444444444,0,0,0.02244444444444444,46.213111111111104,0)" xlink:href="#u"/><use transform="matrix(0.02244444444444444,0,0,0.02244444444444444,51.01622222222221,0)" xlink:href="#p"/><use transform="matrix(0.02244444444444444,0,0,0.02244444444444444,66.2111111111111,0)" xlink:href="#D"/><use transform="matrix(0.02244444444444444,0,0,0.02244444444444444,81.74266666666665,0)" xlink:href="#o"/></g><path fill="#333" d="M641-720c86 3 143 71 130 172H663c-1-28 7-64-22-64H181c-12 0-22 10-22 22v154c0 12 10 22 22 22h460c72 0 130 58 130 130v154C771-58 713 0 641 0H181C95-3 38-71 51-172h108c1 28-7 64 22 64h460c12 0 22-10 22-22v-154c0-12-10-22-22-22H181c-72 0-130-58-130-130v-154c0-72 58-130 130-130h460" id="E"/><path fill="#333" d="M535-580h108v450C643-58 585 0 513 0H183C111 0 53-58 53-130v-450h108v450c0 12 10 22 22 22h330c12 0 22-10 22-22v-450" id="F"/><path fill="#333" d="M632-578v678c0 72-58 130-130 130H144V122h358c12 0 22-10 22-22V0H172C100 0 42-58 42-130v-448h108v448c0 12 10 22 22 22h330c12 0 22-10 22-22v-448h108" id="G"/><g id="j"><use transform="matrix(0.02244444444444444,0,0,0.02244444444444444,0,0)" xlink:href="#E"/><use transform="matrix(0.02244444444444444,0,0,0.02244444444444444,18.449333333333332,0)" xlink:href="#F"/><use transform="matrix(0.02244444444444444,0,0,0.02244444444444444,33.599333333333334,0)" xlink:href="#q"/><use transform="matrix(0.02244444444444444,0,0,0.02244444444444444,54.85422222222222,0)" xlink:href="#q"/><use transform="matrix(0.02244444444444444,0,0,0.02244444444444444,76.58044444444444,0)" xlink:href="#t"/><use transform="matrix(0.02244444444444444,0,0,0.02244444444444444,91.708,0)" xlink:href="#B"/><use transform="matrix(0.02244444444444444,0,0,0.02244444444444444,103.19955555555556,0)" xlink:href="#G"/></g><g id="k"><use transform="matrix(0.02244444444444444,0,0,0.02244444444444444,0,0)" xlink:href="#u"/><use transform="matrix(0.02244444444444444,0,0,0.02244444444444444,4.80311111111111,0)" xlink:href="#u"/><use transform="matrix(0.02244444444444444,0,0,0.02244444444444444,9.60622222222222,0)" xlink:href="#u"/></g><path fill="#333" d="M668-144v-576h108V0H648L164-576V0H56v-720h128" id="H"/><path fill="#333" d="M184-720h460c72 0 130 58 130 130v460C774-58 716 0 644 0H184C112 0 54-58 54-130v-460c0-72 58-130 130-130zm0 612h460c12 0 22-10 22-22v-460c0-12-10-22-22-22H184c-12 0-22 10-22 22v460c0 12 10 22 22 22" id="I"/><path fill="#333" d="M464-387l279-333h129V0H764v-576L464-219 164-576V0H56v-720h128" id="J"/><path fill="#333" d="M718-720v108H166v198h444v108H166v198h552V0H58v-720h660" id="K"/><g id="l"><use transform="matrix(0.02244444444444444,0,0,0.02244444444444444,0,0)" xlink:href="#H"/><use transform="matrix(0.02244444444444444,0,0,0.02244444444444444,18.673777777777776,0)" xlink:href="#I"/><use transform="matrix(0.02244444444444444,0,0,0.02244444444444444,37.257777777777775,0)" xlink:href="#H"/><use transform="matrix(0.02244444444444444,0,0,0.02244444444444444,55.93155555555555,0)" xlink:href="#J"/><use transform="matrix(0.02244444444444444,0,0,0.02244444444444444,76.75999999999999,0)" xlink:href="#K"/><use transform="matrix(0.02244444444444444,0,0,0.02244444444444444,93.8851111111111,0)" xlink:href="#J"/></g><path fill="#333" d="M161-495h108v145h148v108H269v147H161v-147H17v-108h144v-145" id="L"/><use transform="matrix(0.02244444444444444,0,0,0.02244444444444444,0,0)" xlink:href="#L" id="m"/><path fill="#333" d="M514-580c72 0 130 58 130 130v320C644-58 586 0 514 0H54v-770h108v190h352zm22 450v-320c0-12-10-22-22-22H184c-12 0-22 10-22 22v320c0 12 10 22 22 22h330c12 0 22-10 22-22" id="M"/><path fill="#333" d="M181-580h330c72 0 130 58 130 130v320C641-58 583 0 511 0H181C109 0 51-58 51-130v-320c0-72 58-130 130-130zm330 108H181c-12 0-22 10-22 22v320c0 12 10 22 22 22h330c12 0 22-10 22-22v-320c0-12-10-22-22-22" id="N"/><path fill="#333" d="M514-580c72 0 130 58 130 130V0H536v-450c0-12-10-22-22-22H184c-12 0-22 10-22 22V0H54v-580h460" id="O"/><g id="n"><use transform="matrix(0.02244444444444444,0,0,0.02244444444444444,0,0)" xlink:href="#M"/><use transform="matrix(0.02244444444444444,0,0,0.02244444444444444,14.970444444444443,0)" xlink:href="#t"/><use transform="matrix(0.02244444444444444,0,0,0.02244444444444444,30.142888888888884,0)" xlink:href="#M"/><use transform="matrix(0.02244444444444444,0,0,0.02244444444444444,45.11333333333333,0)" xlink:href="#G"/><use transform="matrix(0.02244444444444444,0,0,0.02244444444444444,60.48777777777778,0)" xlink:href="#s"/><use transform="matrix(0.02244444444444444,0,0,0.02244444444444444,67.26599999999999,0)" xlink:href="#N"/><use transform="matrix(0.02244444444444444,0,0,0.02244444444444444,82.46088888888887,0)" xlink:href="#O"/></g></defs></g></svg>